<svg width="413" height="104" viewBox="0 0 413 104" fill="none" xmlns="http://www.w3.org/2000/svg">
<path d="M0 24C0 10.7452 10.7452 0 24 0H389C402.255 0 413 10.7452 413 24V80C413 93.2548 402.255 104 389 104H24C10.7452 104 0 93.2548 0 80V24Z" fill="#AAE3E2"/>
<path d="M0 24C0 10.7452 10.7452 0 24 0H389C402.255 0 413 10.7452 413 24V80C413 93.2548 402.255 104 389 104H24C10.7452 104 0 93.2548 0 80V24Z" fill="url(#paint0_linear_4_115)" fill-opacity="0.2"/>
<path d="M93.3047 49.9766V63.7344C92.7422 64.375 91.8828 65.0625 90.7266 65.7969C89.5859 66.5312 88.125 67.1641 86.3438 67.6953C84.5625 68.2109 82.4375 68.4688 79.9688 68.4688C77.7344 68.4688 75.7031 68.1094 73.875 67.3906C72.0469 66.6562 70.4766 65.5859 69.1641 64.1797C67.8516 62.7578 66.8359 61.0234 66.1172 58.9766C65.4141 56.9297 65.0625 54.5859 65.0625 51.9453V49.9297C65.0625 47.2891 65.4141 44.9453 66.1172 42.8984C66.8203 40.8516 67.8125 39.125 69.0938 37.7188C70.375 36.2969 71.8984 35.2188 73.6641 34.4844C75.4297 33.75 77.3828 33.3828 79.5234 33.3828C82.5703 33.3828 85.0625 33.875 87 34.8594C88.9375 35.8281 90.4062 37.1719 91.4062 38.8906C92.4219 40.6094 93.0469 42.5859 93.2812 44.8203H85.9219C85.7656 43.6797 85.4531 42.6953 84.9844 41.8672C84.5312 41.0391 83.8828 40.4062 83.0391 39.9688C82.1953 39.5156 81.1016 39.2891 79.7578 39.2891C78.6797 39.2891 77.7031 39.5156 76.8281 39.9688C75.9688 40.4062 75.2422 41.0703 74.6484 41.9609C74.0547 42.8516 73.6016 43.9609 73.2891 45.2891C72.9766 46.6016 72.8203 48.1328 72.8203 49.8828V51.9453C72.8203 53.6953 72.9766 55.2344 73.2891 56.5625C73.6172 57.8906 74.0938 59 74.7188 59.8906C75.3438 60.7656 76.1328 61.4297 77.0859 61.8828C78.0547 62.3359 79.1797 62.5625 80.4609 62.5625C81.4609 62.5625 82.3047 62.4844 82.9922 62.3281C83.6797 62.1562 84.2422 61.9453 84.6797 61.6953C85.1172 61.4297 85.4453 61.1875 85.6641 60.9688V55.2969H79.5938V49.9766H93.3047Z" fill="white"/>
<path d="M110.109 68.4688C108.094 68.4688 106.289 68.1484 104.695 67.5078C103.102 66.8672 101.75 65.9844 100.641 64.8594C99.5469 63.7188 98.7109 62.4062 98.1328 60.9219C97.5547 59.4375 97.2656 57.8516 97.2656 56.1641V55.2734C97.2656 53.3828 97.5312 51.6406 98.0625 50.0469C98.5938 48.4531 99.3672 47.0703 100.383 45.8984C101.414 44.7109 102.68 43.7969 104.18 43.1562C105.68 42.5 107.391 42.1719 109.312 42.1719C111.109 42.1719 112.711 42.4688 114.117 43.0625C115.523 43.6406 116.711 44.4766 117.68 45.5703C118.648 46.6484 119.383 47.9531 119.883 49.4844C120.398 51 120.656 52.7031 120.656 54.5938V57.5938H100.219V52.8828H113.484V52.3203C113.484 51.4297 113.32 50.6484 112.992 49.9766C112.68 49.3047 112.211 48.7891 111.586 48.4297C110.977 48.0547 110.203 47.8672 109.266 47.8672C108.375 47.8672 107.633 48.0547 107.039 48.4297C106.445 48.8047 105.969 49.3359 105.609 50.0234C105.266 50.6953 105.016 51.4844 104.859 52.3906C104.703 53.2812 104.625 54.2422 104.625 55.2734V56.1641C104.625 57.1484 104.758 58.0469 105.023 58.8594C105.289 59.6719 105.68 60.3672 106.195 60.9453C106.711 61.5234 107.336 61.9766 108.07 62.3047C108.805 62.6328 109.641 62.7969 110.578 62.7969C111.734 62.7969 112.836 62.5781 113.883 62.1406C114.93 61.6875 115.836 60.9844 116.602 60.0312L120.023 63.9453C119.508 64.6953 118.781 65.4219 117.844 66.125C116.922 66.8125 115.812 67.375 114.516 67.8125C113.219 68.25 111.75 68.4688 110.109 68.4688Z" fill="white"/>
<path d="M137.109 42.6406V47.7734H122.062V42.6406H137.109ZM125.508 36.3594H132.844V60.0547C132.844 60.7578 132.93 61.2969 133.102 61.6719C133.273 62.0469 133.555 62.3125 133.945 62.4688C134.336 62.6094 134.836 62.6797 135.445 62.6797C135.883 62.6797 136.258 62.6641 136.57 62.6328C136.883 62.6016 137.172 62.5625 137.438 62.5156V67.8125C136.812 68.0156 136.148 68.1719 135.445 68.2812C134.742 68.4062 133.977 68.4688 133.148 68.4688C131.57 68.4688 130.203 68.2109 129.047 67.6953C127.906 67.1797 127.031 66.3672 126.422 65.2578C125.812 64.1328 125.508 62.6719 125.508 60.875V36.3594Z" fill="white"/>
<path d="M166.406 56.1406H157.828V50.2109H166.406C167.672 50.2109 168.688 50 169.453 49.5781C170.234 49.1562 170.805 48.5781 171.164 47.8438C171.539 47.0938 171.727 46.25 171.727 45.3125C171.727 44.3438 171.539 43.4453 171.164 42.6172C170.805 41.7734 170.234 41.0938 169.453 40.5781C168.688 40.0625 167.672 39.8047 166.406 39.8047H160.594V68H152.953V33.875H166.406C169.125 33.875 171.453 34.3672 173.391 35.3516C175.344 36.3359 176.836 37.6875 177.867 39.4062C178.914 41.1094 179.438 43.0625 179.438 45.2656C179.438 47.4688 178.914 49.3828 177.867 51.0078C176.836 52.6328 175.344 53.8984 173.391 54.8047C171.453 55.6953 169.125 56.1406 166.406 56.1406Z" fill="white"/>
<path d="M191.414 32V68H184.078V32H191.414Z" fill="white"/>
<path d="M210.117 61.9531V51.0781C210.117 50.3125 210 49.6562 209.766 49.1094C209.531 48.5625 209.164 48.1328 208.664 47.8203C208.164 47.5078 207.516 47.3516 206.719 47.3516C206.047 47.3516 205.461 47.4688 204.961 47.7031C204.477 47.9375 204.102 48.2734 203.836 48.7109C203.586 49.1484 203.461 49.6875 203.461 50.3281H196.148C196.148 49.1875 196.406 48.125 196.922 47.1406C197.438 46.1562 198.172 45.2891 199.125 44.5391C200.094 43.7891 201.25 43.2109 202.594 42.8047C203.938 42.3828 205.445 42.1719 207.117 42.1719C209.102 42.1719 210.867 42.5078 212.414 43.1797C213.977 43.8359 215.211 44.8281 216.117 46.1562C217.023 47.4688 217.477 49.125 217.477 51.125V61.7422C217.477 63.2734 217.562 64.4766 217.734 65.3516C217.922 66.2109 218.188 66.9609 218.531 67.6016V68H211.148C210.805 67.2656 210.547 66.3594 210.375 65.2812C210.203 64.1875 210.117 63.0781 210.117 61.9531ZM211.031 52.5312L211.078 56.5625H207.445C206.633 56.5625 205.93 56.6641 205.336 56.8672C204.758 57.0703 204.289 57.3516 203.93 57.7109C203.57 58.0547 203.305 58.4609 203.133 58.9297C202.977 59.3828 202.898 59.8828 202.898 60.4297C202.898 60.9453 203.023 61.4141 203.273 61.8359C203.523 62.2422 203.867 62.5625 204.305 62.7969C204.742 63.0312 205.25 63.1484 205.828 63.1484C206.781 63.1484 207.594 62.9609 208.266 62.5859C208.953 62.2109 209.484 61.7578 209.859 61.2266C210.234 60.6797 210.422 60.1719 210.422 59.7031L212.18 62.75C211.898 63.375 211.555 64.0234 211.148 64.6953C210.742 65.3516 210.227 65.9688 209.602 66.5469C208.977 67.1094 208.219 67.5703 207.328 67.9297C206.453 68.2891 205.398 68.4688 204.164 68.4688C202.57 68.4688 201.125 68.1484 199.828 67.5078C198.531 66.8516 197.492 65.9531 196.711 64.8125C195.945 63.6719 195.562 62.3594 195.562 60.875C195.562 59.5469 195.805 58.3672 196.289 57.3359C196.773 56.3047 197.5 55.4297 198.469 54.7109C199.453 53.9922 200.688 53.4531 202.172 53.0938C203.656 52.7188 205.391 52.5312 207.375 52.5312H211.031Z" fill="white"/>
<path d="M229.547 65.0703L236.18 42.6406H244.055L233.859 71.7969C233.641 72.4375 233.344 73.125 232.969 73.8594C232.609 74.5938 232.117 75.2969 231.492 75.9688C230.883 76.6406 230.102 77.1875 229.148 77.6094C228.195 78.0312 227.023 78.2422 225.633 78.2422C224.93 78.2422 224.383 78.2031 223.992 78.125C223.617 78.0625 223.117 77.9531 222.492 77.7969L222.469 72.4766C222.672 72.4766 222.852 72.4766 223.008 72.4766C223.18 72.4922 223.352 72.5 223.523 72.5C224.398 72.5 225.102 72.4062 225.633 72.2188C226.18 72.0312 226.602 71.75 226.898 71.375C227.211 71.0156 227.461 70.5547 227.648 69.9922L229.547 65.0703ZM227.32 42.6406L232.57 60.6875L233.461 68.4453L228.516 68.7031L219.445 42.6406H227.32Z" fill="white"/>
<path d="M254.133 32V68H246.797V32H254.133Z" fill="white"/>
<path d="M267.117 42.6406V68H259.781V42.6406H267.117ZM259.336 36.0781C259.336 35.0156 259.711 34.1484 260.461 33.4766C261.211 32.7891 262.195 32.4453 263.414 32.4453C264.633 32.4453 265.617 32.7891 266.367 33.4766C267.133 34.1484 267.516 35.0156 267.516 36.0781C267.516 37.125 267.133 37.9922 266.367 38.6797C265.617 39.3516 264.633 39.6875 263.414 39.6875C262.195 39.6875 261.211 39.3516 260.461 38.6797C259.711 37.9922 259.336 37.125 259.336 36.0781Z" fill="white"/>
<path d="M285.891 60.9453C285.891 60.4766 285.742 60.0625 285.445 59.7031C285.164 59.3438 284.648 59.0156 283.898 58.7188C283.164 58.4219 282.125 58.125 280.781 57.8281C279.516 57.5625 278.336 57.2188 277.242 56.7969C276.148 56.3594 275.195 55.8359 274.383 55.2266C273.57 54.6016 272.938 53.8672 272.484 53.0234C272.031 52.1641 271.805 51.1875 271.805 50.0938C271.805 49.0312 272.031 48.0234 272.484 47.0703C272.953 46.1172 273.625 45.2734 274.5 44.5391C275.391 43.8047 276.469 43.2266 277.734 42.8047C279.016 42.3828 280.469 42.1719 282.094 42.1719C284.328 42.1719 286.258 42.5234 287.883 43.2266C289.508 43.9141 290.758 44.8828 291.633 46.1328C292.508 47.3672 292.945 48.7812 292.945 50.375H285.633C285.633 49.7188 285.508 49.1484 285.258 48.6641C285.008 48.1797 284.625 47.8047 284.109 47.5391C283.594 47.2578 282.914 47.1172 282.07 47.1172C281.414 47.1172 280.836 47.2344 280.336 47.4688C279.852 47.6875 279.469 47.9922 279.188 48.3828C278.922 48.7734 278.789 49.2266 278.789 49.7422C278.789 50.1016 278.867 50.4297 279.023 50.7266C279.195 51.0078 279.453 51.2734 279.797 51.5234C280.156 51.7578 280.617 51.9688 281.18 52.1562C281.758 52.3438 282.461 52.5234 283.289 52.6953C285.055 53.0234 286.664 53.4844 288.117 54.0781C289.586 54.6719 290.758 55.4922 291.633 56.5391C292.523 57.5859 292.969 58.9688 292.969 60.6875C292.969 61.8125 292.711 62.8438 292.195 63.7812C291.695 64.7188 290.969 65.5391 290.016 66.2422C289.062 66.9453 287.922 67.4922 286.594 67.8828C285.266 68.2734 283.766 68.4688 282.094 68.4688C279.703 68.4688 277.68 68.0391 276.023 67.1797C274.367 66.3203 273.117 65.2422 272.273 63.9453C271.445 62.6328 271.031 61.2891 271.031 59.9141H277.898C277.93 60.7578 278.141 61.4453 278.531 61.9766C278.938 62.5078 279.461 62.8984 280.102 63.1484C280.742 63.3828 281.461 63.5 282.258 63.5C283.055 63.5 283.719 63.3906 284.25 63.1719C284.781 62.9531 285.188 62.6562 285.469 62.2812C285.75 61.8906 285.891 61.4453 285.891 60.9453Z" fill="white"/>
<path d="M309.938 42.6406V47.7734H294.891V42.6406H309.938ZM298.336 36.3594H305.672V60.0547C305.672 60.7578 305.758 61.2969 305.93 61.6719C306.102 62.0469 306.383 62.3125 306.773 62.4688C307.164 62.6094 307.664 62.6797 308.273 62.6797C308.711 62.6797 309.086 62.6641 309.398 62.6328C309.711 62.6016 310 62.5625 310.266 62.5156V67.8125C309.641 68.0156 308.977 68.1719 308.273 68.2812C307.57 68.4062 306.805 68.4688 305.977 68.4688C304.398 68.4688 303.031 68.2109 301.875 67.6953C300.734 67.1797 299.859 66.3672 299.25 65.2578C298.641 64.1328 298.336 62.6719 298.336 60.875V36.3594Z" fill="white"/>
<path d="M326.953 60.9453C326.953 60.4766 326.805 60.0625 326.508 59.7031C326.227 59.3438 325.711 59.0156 324.961 58.7188C324.227 58.4219 323.188 58.125 321.844 57.8281C320.578 57.5625 319.398 57.2188 318.305 56.7969C317.211 56.3594 316.258 55.8359 315.445 55.2266C314.633 54.6016 314 53.8672 313.547 53.0234C313.094 52.1641 312.867 51.1875 312.867 50.0938C312.867 49.0312 313.094 48.0234 313.547 47.0703C314.016 46.1172 314.688 45.2734 315.562 44.5391C316.453 43.8047 317.531 43.2266 318.797 42.8047C320.078 42.3828 321.531 42.1719 323.156 42.1719C325.391 42.1719 327.32 42.5234 328.945 43.2266C330.57 43.9141 331.82 44.8828 332.695 46.1328C333.57 47.3672 334.008 48.7812 334.008 50.375H326.695C326.695 49.7188 326.57 49.1484 326.32 48.6641C326.07 48.1797 325.688 47.8047 325.172 47.5391C324.656 47.2578 323.977 47.1172 323.133 47.1172C322.477 47.1172 321.898 47.2344 321.398 47.4688C320.914 47.6875 320.531 47.9922 320.25 48.3828C319.984 48.7734 319.852 49.2266 319.852 49.7422C319.852 50.1016 319.93 50.4297 320.086 50.7266C320.258 51.0078 320.516 51.2734 320.859 51.5234C321.219 51.7578 321.68 51.9688 322.242 52.1562C322.82 52.3438 323.523 52.5234 324.352 52.6953C326.117 53.0234 327.727 53.4844 329.18 54.0781C330.648 54.6719 331.82 55.4922 332.695 56.5391C333.586 57.5859 334.031 58.9688 334.031 60.6875C334.031 61.8125 333.773 62.8438 333.258 63.7812C332.758 64.7188 332.031 65.5391 331.078 66.2422C330.125 66.9453 328.984 67.4922 327.656 67.8828C326.328 68.2734 324.828 68.4688 323.156 68.4688C320.766 68.4688 318.742 68.0391 317.086 67.1797C315.43 66.3203 314.18 65.2422 313.336 63.9453C312.508 62.6328 312.094 61.2891 312.094 59.9141H318.961C318.992 60.7578 319.203 61.4453 319.594 61.9766C320 62.5078 320.523 62.8984 321.164 63.1484C321.805 63.3828 322.523 63.5 323.32 63.5C324.117 63.5 324.781 63.3906 325.312 63.1719C325.844 62.9531 326.25 62.6562 326.531 62.2812C326.812 61.8906 326.953 61.4453 326.953 60.9453Z" fill="white"/>
<path d="M346.336 33.875L345.445 57.3828H339.422L338.531 33.875H346.336ZM338.32 64.6719C338.32 63.625 338.695 62.7422 339.445 62.0234C340.195 61.3047 341.188 60.9453 342.422 60.9453C343.641 60.9453 344.617 61.3047 345.352 62.0234C346.102 62.7422 346.477 63.625 346.477 64.6719C346.477 65.7344 346.102 66.625 345.352 67.3438C344.617 68.0469 343.641 68.3984 342.422 68.3984C341.188 68.3984 340.195 68.0469 339.445 67.3438C338.695 66.625 338.32 65.7344 338.32 64.6719Z" fill="white"/>
<defs>
<linearGradient id="paint0_linear_4_115" x1="206.5" y1="0" x2="206.5" y2="104" gradientUnits="userSpaceOnUse">
<stop stop-color="#FF80CC" stop-opacity="0.57"/>
<stop offset="1" stop-opacity="0"/>
</linearGradient>
</defs>
</svg>
